%TF.GenerationSoftware,KiCad,Pcbnew,(6.0.7)*%
%TF.CreationDate,2022-09-05T13:16:06+02:00*%
%TF.ProjectId,blackmagic_mini,626c6163-6b6d-4616-9769-635f6d696e69,rev?*%
%TF.SameCoordinates,Original*%
%TF.FileFunction,Paste,Top*%
%TF.FilePolarity,Positive*%
%FSLAX46Y46*%
G04 Gerber Fmt 4.6, Leading zero omitted, Abs format (unit mm)*
G04 Created by KiCad (PCBNEW (6.0.7)) date 2022-09-05 13:16:06*
%MOMM*%
%LPD*%
G01*
G04 APERTURE LIST*
G04 Aperture macros list*
%AMRoundRect*
0 Rectangle with rounded corners*
0 $1 Rounding radius*
0 $2 $3 $4 $5 $6 $7 $8 $9 X,Y pos of 4 corners*
0 Add a 4 corners polygon primitive as box body*
4,1,4,$2,$3,$4,$5,$6,$7,$8,$9,$2,$3,0*
0 Add four circle primitives for the rounded corners*
1,1,$1+$1,$2,$3*
1,1,$1+$1,$4,$5*
1,1,$1+$1,$6,$7*
1,1,$1+$1,$8,$9*
0 Add four rect primitives between the rounded corners*
20,1,$1+$1,$2,$3,$4,$5,0*
20,1,$1+$1,$4,$5,$6,$7,0*
20,1,$1+$1,$6,$7,$8,$9,0*
20,1,$1+$1,$8,$9,$2,$3,0*%
G04 Aperture macros list end*
%ADD10R,2.100000X0.740000*%
%ADD11R,2.400000X0.750000*%
%ADD12RoundRect,0.218750X0.256250X-0.218750X0.256250X0.218750X-0.256250X0.218750X-0.256250X-0.218750X0*%
%ADD13R,1.700000X2.400000*%
%ADD14RoundRect,0.075000X0.662500X0.075000X-0.662500X0.075000X-0.662500X-0.075000X0.662500X-0.075000X0*%
%ADD15RoundRect,0.075000X0.075000X0.662500X-0.075000X0.662500X-0.075000X-0.662500X0.075000X-0.662500X0*%
%ADD16RoundRect,0.150000X-0.512500X-0.150000X0.512500X-0.150000X0.512500X0.150000X-0.512500X0.150000X0*%
%ADD17R,0.800000X1.700000*%
%ADD18RoundRect,0.135000X-0.185000X0.135000X-0.185000X-0.135000X0.185000X-0.135000X0.185000X0.135000X0*%
%ADD19RoundRect,0.135000X0.185000X-0.135000X0.185000X0.135000X-0.185000X0.135000X-0.185000X-0.135000X0*%
%ADD20RoundRect,0.135000X0.135000X0.185000X-0.135000X0.185000X-0.135000X-0.185000X0.135000X-0.185000X0*%
%ADD21RoundRect,0.135000X-0.135000X-0.185000X0.135000X-0.185000X0.135000X0.185000X-0.135000X0.185000X0*%
%ADD22RoundRect,0.150000X-0.587500X-0.150000X0.587500X-0.150000X0.587500X0.150000X-0.587500X0.150000X0*%
%ADD23R,2.600000X0.450000*%
%ADD24R,2.500000X2.000000*%
%ADD25RoundRect,0.140000X0.170000X-0.140000X0.170000X0.140000X-0.170000X0.140000X-0.170000X-0.140000X0*%
%ADD26RoundRect,0.140000X-0.170000X0.140000X-0.170000X-0.140000X0.170000X-0.140000X0.170000X0.140000X0*%
%ADD27RoundRect,0.140000X0.140000X0.170000X-0.140000X0.170000X-0.140000X-0.170000X0.140000X-0.170000X0*%
%ADD28RoundRect,0.225000X0.225000X0.250000X-0.225000X0.250000X-0.225000X-0.250000X0.225000X-0.250000X0*%
G04 APERTURE END LIST*
D10*
%TO.C,J1*%
X47480000Y-32080000D03*
X50580000Y-30810000D03*
X47480000Y-29540000D03*
X50580000Y-28270000D03*
%TD*%
D11*
%TO.C,J3*%
X53550000Y-24135000D03*
X57450000Y-24135000D03*
X53550000Y-25405000D03*
X57450000Y-25405000D03*
X53550000Y-26675000D03*
X57450000Y-26675000D03*
X53550000Y-27945000D03*
X57450000Y-27945000D03*
X53550000Y-29215000D03*
X57450000Y-29215000D03*
%TD*%
D12*
%TO.C,D2*%
X39750000Y-22387500D03*
X39750000Y-20812500D03*
%TD*%
%TO.C,D1*%
X38050000Y-22412500D03*
X38050000Y-20837500D03*
%TD*%
%TO.C,D4*%
X43100000Y-22412500D03*
X43100000Y-20837500D03*
%TD*%
%TO.C,D3*%
X41400000Y-20837500D03*
X41400000Y-22412500D03*
%TD*%
D13*
%TO.C,X1*%
X52625000Y-35225000D03*
X56325000Y-35225000D03*
%TD*%
D14*
%TO.C,U2*%
X44762500Y-34300000D03*
X44762500Y-33800000D03*
X44762500Y-33300000D03*
X44762500Y-32800000D03*
X44762500Y-32300000D03*
X44762500Y-31800000D03*
X44762500Y-31300000D03*
X44762500Y-30800000D03*
X44762500Y-30300000D03*
X44762500Y-29800000D03*
X44762500Y-29300000D03*
X44762500Y-28800000D03*
D15*
X43350000Y-27387500D03*
X42850000Y-27387500D03*
X42350000Y-27387500D03*
X41850000Y-27387500D03*
X41350000Y-27387500D03*
X40850000Y-27387500D03*
X40350000Y-27387500D03*
X39850000Y-27387500D03*
X39350000Y-27387500D03*
X38850000Y-27387500D03*
X38350000Y-27387500D03*
X37850000Y-27387500D03*
D14*
X36437500Y-28800000D03*
X36437500Y-29300000D03*
X36437500Y-29800000D03*
X36437500Y-30300000D03*
X36437500Y-30800000D03*
X36437500Y-31300000D03*
X36437500Y-31800000D03*
X36437500Y-32300000D03*
X36437500Y-32800000D03*
X36437500Y-33300000D03*
X36437500Y-33800000D03*
X36437500Y-34300000D03*
D15*
X37850000Y-35712500D03*
X38350000Y-35712500D03*
X38850000Y-35712500D03*
X39350000Y-35712500D03*
X39850000Y-35712500D03*
X40350000Y-35712500D03*
X40850000Y-35712500D03*
X41350000Y-35712500D03*
X41850000Y-35712500D03*
X42350000Y-35712500D03*
X42850000Y-35712500D03*
X43350000Y-35712500D03*
%TD*%
D16*
%TO.C,U1*%
X32912500Y-20850000D03*
X32912500Y-21800000D03*
X32912500Y-22750000D03*
X35187500Y-22750000D03*
X35187500Y-20850000D03*
%TD*%
D17*
%TO.C,S1*%
X22125000Y-21700000D03*
X25525000Y-21700000D03*
%TD*%
D18*
%TO.C,R15*%
X35000000Y-24165000D03*
X35000000Y-25185000D03*
%TD*%
D19*
%TO.C,R14*%
X35825000Y-36610000D03*
X35825000Y-35590000D03*
%TD*%
%TO.C,R13*%
X34500000Y-36410000D03*
X34500000Y-35390000D03*
%TD*%
D20*
%TO.C,R12*%
X33235000Y-28250000D03*
X32215000Y-28250000D03*
%TD*%
D21*
%TO.C,R11*%
X32190000Y-29425000D03*
X33210000Y-29425000D03*
%TD*%
D20*
%TO.C,R10*%
X33210000Y-27050000D03*
X32190000Y-27050000D03*
%TD*%
D19*
%TO.C,R9*%
X49825000Y-23135000D03*
X49825000Y-22115000D03*
%TD*%
D18*
%TO.C,R8*%
X50975000Y-22090000D03*
X50975000Y-23110000D03*
%TD*%
D19*
%TO.C,R7*%
X43100000Y-24710000D03*
X43100000Y-23690000D03*
%TD*%
%TO.C,R6*%
X41400000Y-24710000D03*
X41400000Y-23690000D03*
%TD*%
%TO.C,R5*%
X39750000Y-24710000D03*
X39750000Y-23690000D03*
%TD*%
%TO.C,R4*%
X38050000Y-24735000D03*
X38050000Y-23715000D03*
%TD*%
D20*
%TO.C,R3*%
X32190000Y-32875000D03*
X33210000Y-32875000D03*
%TD*%
%TO.C,R2*%
X33210000Y-31725000D03*
X32190000Y-31725000D03*
%TD*%
%TO.C,R1*%
X33210000Y-30550000D03*
X32190000Y-30550000D03*
%TD*%
D22*
%TO.C,Q1*%
X45062500Y-20875000D03*
X45062500Y-22775000D03*
X46937500Y-21825000D03*
%TD*%
D23*
%TO.C,J2*%
X28975000Y-27800000D03*
X28975000Y-28600000D03*
X28975000Y-29400000D03*
X28975000Y-30200000D03*
X28975000Y-31000000D03*
D24*
X28467000Y-24955000D03*
X22879000Y-24955000D03*
X28467000Y-33845000D03*
X22879000Y-33845000D03*
%TD*%
D25*
%TO.C,C9*%
X48700000Y-23080000D03*
X48700000Y-22120000D03*
%TD*%
D26*
%TO.C,C8*%
X58075000Y-34695000D03*
X58075000Y-35655000D03*
%TD*%
%TO.C,C7*%
X49025000Y-35220000D03*
X49025000Y-36180000D03*
%TD*%
%TO.C,C6*%
X47100000Y-35220000D03*
X47100000Y-36180000D03*
%TD*%
D25*
%TO.C,C5*%
X34350000Y-34430000D03*
X34350000Y-33470000D03*
%TD*%
D27*
%TO.C,C4*%
X45805000Y-27800000D03*
X44845000Y-27800000D03*
%TD*%
D25*
%TO.C,C3*%
X36375000Y-25150000D03*
X36375000Y-24190000D03*
%TD*%
D28*
%TO.C,C2*%
X33600000Y-24525000D03*
X32050000Y-24525000D03*
%TD*%
D26*
%TO.C,C1*%
X30700000Y-20845000D03*
X30700000Y-21805000D03*
%TD*%
M02*
