%TF.GenerationSoftware,KiCad,Pcbnew,(6.0.7)*%
%TF.CreationDate,2022-09-05T13:16:06+02:00*%
%TF.ProjectId,blackmagic_mini,626c6163-6b6d-4616-9769-635f6d696e69,rev?*%
%TF.SameCoordinates,Original*%
%TF.FileFunction,Copper,L2,Bot*%
%TF.FilePolarity,Positive*%
%FSLAX46Y46*%
G04 Gerber Fmt 4.6, Leading zero omitted, Abs format (unit mm)*
G04 Created by KiCad (PCBNEW (6.0.7)) date 2022-09-05 13:16:06*
%MOMM*%
%LPD*%
G01*
G04 APERTURE LIST*
%TA.AperFunction,ViaPad*%
%ADD10C,0.558800*%
%TD*%
%TA.AperFunction,Conductor*%
%ADD11C,0.200000*%
%TD*%
G04 APERTURE END LIST*
D10*
%TO.N,GND*%
X47075000Y-32900000D03*
X46250000Y-30750000D03*
X47975000Y-27700000D03*
X50025000Y-20625000D03*
X55000000Y-20675000D03*
X58475000Y-20625000D03*
X58400000Y-36625000D03*
X44800000Y-36700000D03*
X33000000Y-36700000D03*
X29375000Y-36525000D03*
X24875000Y-36525000D03*
X20950000Y-36500000D03*
X21050000Y-33450000D03*
X20975000Y-30425000D03*
X20900000Y-27350000D03*
X20850000Y-23275000D03*
X28900000Y-20575000D03*
X26625000Y-20600000D03*
X23400000Y-20600000D03*
X20850000Y-20700000D03*
%TO.N,/RXD*%
X51150000Y-31925000D03*
%TO.N,/TXD*%
X48500000Y-30475000D03*
X38500000Y-31925000D03*
%TO.N,+3V3*%
X45180000Y-35220000D03*
X37750000Y-32875000D03*
X44900000Y-24050000D03*
%TO.N,/RXD*%
X33200000Y-33950000D03*
%TO.N,Net-(U2-Pad34)*%
X35225000Y-34925000D03*
X35200000Y-33425000D03*
%TO.N,Net-(R10-Pad2)*%
X34212500Y-28287500D03*
X30000000Y-26725000D03*
%TO.N,/TDO*%
X50475000Y-26075000D03*
X42825000Y-30125000D03*
%TO.N,Net-(R1-Pad2)*%
X31112500Y-32712500D03*
X31575000Y-30700000D03*
%TO.N,/RXD*%
X34350000Y-31550000D03*
%TO.N,/RST*%
X43000000Y-29200000D03*
X51550000Y-24775000D03*
%TD*%
D11*
%TO.N,GND*%
X49600000Y-29325000D02*
X47975000Y-27700000D01*
X49600000Y-30700000D02*
X49600000Y-29325000D01*
X47400000Y-32900000D02*
X49600000Y-30700000D01*
X47075000Y-32900000D02*
X47400000Y-32900000D01*
%TO.N,/TXD*%
X47050000Y-31925000D02*
X38500000Y-31925000D01*
X48500000Y-30475000D02*
X47050000Y-31925000D01*
%TO.N,/RXD*%
X33200000Y-34700000D02*
X33200000Y-33950000D01*
X46225000Y-36125000D02*
X34625000Y-36125000D01*
X46950000Y-34050000D02*
X46950000Y-35400000D01*
X49075000Y-31925000D02*
X46950000Y-34050000D01*
X46950000Y-35400000D02*
X46225000Y-36125000D01*
X51150000Y-31925000D02*
X49075000Y-31925000D01*
X34625000Y-36125000D02*
X33200000Y-34700000D01*
%TO.N,GND*%
X47975000Y-27700000D02*
X46250000Y-29425000D01*
X46250000Y-29425000D02*
X46250000Y-30750000D01*
%TO.N,/TDO*%
X43975000Y-29850000D02*
X43100000Y-29850000D01*
X43100000Y-29850000D02*
X42825000Y-30125000D01*
X46800000Y-27025000D02*
X43975000Y-29850000D01*
X50475000Y-26075000D02*
X49525000Y-27025000D01*
X49525000Y-27025000D02*
X46800000Y-27025000D01*
%TO.N,/RST*%
X43750000Y-28675000D02*
X47650000Y-24775000D01*
X47650000Y-24775000D02*
X51550000Y-24775000D01*
X43525000Y-28675000D02*
X43750000Y-28675000D01*
X43000000Y-29200000D02*
X43525000Y-28675000D01*
%TO.N,+3V3*%
X40975000Y-24050000D02*
X37750000Y-27275000D01*
X37750000Y-27275000D02*
X37750000Y-32875000D01*
X44900000Y-24050000D02*
X40975000Y-24050000D01*
X40095000Y-35220000D02*
X45180000Y-35220000D01*
X37750000Y-32875000D02*
X40095000Y-35220000D01*
%TO.N,Net-(U2-Pad34)*%
X35200000Y-33425000D02*
X35225000Y-33450000D01*
X35225000Y-33450000D02*
X35225000Y-34925000D01*
%TO.N,/RXD*%
X33200000Y-32700000D02*
X34350000Y-31550000D01*
X33200000Y-33950000D02*
X33200000Y-32700000D01*
%TO.N,Net-(R10-Pad2)*%
X34212500Y-27937500D02*
X34212500Y-28287500D01*
X33000000Y-26725000D02*
X34212500Y-27937500D01*
X30000000Y-26725000D02*
X33000000Y-26725000D01*
%TO.N,Net-(R1-Pad2)*%
X31112500Y-31162500D02*
X31112500Y-32712500D01*
X31575000Y-30700000D02*
X31112500Y-31162500D01*
%TD*%
M02*
