M48
; DRILL file {KiCad (6.0.7)} date Mon Sep  5 13:16:10 2022
; FORMAT={2:4/ absolute / inch / suppress leading zeros}
; #@! TF.CreationDate,2022-09-05T13:16:10+02:00
; #@! TF.GenerationSoftware,Kicad,Pcbnew,(6.0.7)
; #@! TF.FileFunction,Plated,1,2,PTH
FMAT,2
INCH,TZ
; #@! TA.AperFunction,Plated,PTH,ViaDrill
T1C0.0120
%
G90
G05
T1
X8209Y-8150
X8209Y-9163
X8228Y-10768
X8248Y-14370
X8258Y-11978
X8287Y-13169
X9213Y-8110
X9793Y-14380
X10482Y-8110
X11378Y-8100
X11565Y-14380
X11811Y-10522
X12249Y-12879
X12431Y-12087
X12992Y-14449
X13071Y-13366
X13469Y-11137
X13524Y-12421
X13858Y-13159
X13868Y-13750
X14862Y-12943
X15157Y-12569
X16860Y-11860
X16929Y-11496
X17638Y-14449
X17677Y-9469
X17787Y-13866
X18209Y-12106
X18533Y-12953
X18888Y-10906
X19094Y-11998
X19695Y-8120
X19872Y-10266
X20138Y-12569
X20295Y-9754
X21654Y-8140
X22992Y-14419
X23022Y-8120
T0
M30
